<svg xmlns="http://www.w3.org/2000/svg" viewBox="199.39 107.86 54 55.8"> <g transform="matrix(.9 0 0 .9 199.39 107.86)" fill="#ff4747" featurekey="symbolContainer"> <rect width="60" height="62" rx="10" ry="10" xmlns="http://www.w3.org/2000/svg"></rect> </g> <g transform="matrix(1.0323 0 0 1.0323 213.6 109.96)" fill="#111" style="" featurekey="monogramFeature-0"> <path d="m10.506 24.012-8.2628-8.2628c-0.85756-0.85756-0.85756-2.248 0-3.1056 0.85812-0.85784 2.2485-0.85756 3.1058 0l6.71 6.7104 6.7128-6.7104c0.85812-0.85732 2.2482-0.85732 3.1058 5.4688e-4 0.85732 0.85756 0.85704 2.248-5.4688e-4 3.1056l-8.2656 8.2628c-0.4288 0.42852-0.99072 0.64288-1.5526 0.64288-0.5622 0-1.1241-0.21438-1.5529-0.64316zm8.266-3.106c0.85812-0.85732 2.2482-0.85704 3.106 8.2032e-4 0.85732 0.85756 0.85704 2.248-5.4688e-4 3.1056l-7.6224 7.6196v6.1724c0 1.2128-0.98328 2.196-2.196 2.196s-2.196-0.98328-2.196-2.196v-6.1726l-7.6196-7.62c-0.85756-0.85756-0.85756-2.248 0-3.1056 0.85812-0.85784 2.2485-0.85756 3.1058 0l6.71 6.71z" xmlns="http://www.w3.org/2000/svg"></path> </g> </svg>